<svg xmlns="http://www.w3.org/2000/svg" viewBox="0 0 1872 454">
  <defs>
    <style>
      .cls-1 {
        fill: #20662a;
      }

      .cls-2 {
        fill: #70f583;
      }

      .cls-3 {
        fill: #559e5f;
      }

      .cls-4 {
        fill: #4ae75e;
      }

      .cls-5 {
        fill: #399;
      }

      .cls-6 {
        fill: #003030;
      }

      .cls-7 {
        fill: #2b8838;
      }

      .cls-8 {
        fill: #1d5b25;
      }

      .cls-9 {
        fill: #b7fac1;
      }

      .cls-10 {
        fill: #2a8637;
      }

      .cls-11 {
        fill: #68db78;
      }
    </style>
  </defs>
  <title>Landscape</title>
  <g id="Layer_2" data-name="Layer 2">
    <g id="Landscape">
      <g id="Element">
        <ellipse class="cls-1" cx="327" cy="230" rx="44" ry="27" />
        <ellipse class="cls-1" cx="431" cy="237" rx="27" ry="88" transform="translate(165.64 651.14) rotate(-86.16)" />
        <path class="cls-2"
          d="M518.8,242.9a10.39,10.39,0,0,1-3.07,6.39c-10.66-18-47.86-33.14-93-36.18-27.57-1.85-52.82,1.17-71.25,7.55,14.31-8.51,45.53-13,81.31-10.6C481.3,213.32,519.8,228,518.8,242.9Z" />
        <path class="cls-3"
          d="M1290.58,103.67l-11.81,29a3.15,3.15,0,0,0,2.92,4.34h23.62a3.15,3.15,0,0,0,2.92-4.34l-11.81-29A3.15,3.15,0,0,0,1290.58,103.67Z" />
        <polygon class="cls-3" points="1306.5 90.5 1290 131 1323 131 1306.5 90.5" />
        <path class="cls-3"
          d="M1322.48,98l-14.86,36.47a1.1,1.1,0,0,0,1,1.52h29.72a1.1,1.1,0,0,0,1-1.52L1324.52,98A1.1,1.1,0,0,0,1322.48,98Z" />
        <polygon class="cls-3" points="1341.5 80.5 1325 121 1358 121 1341.5 80.5" />
        <path class="cls-3"
          d="M1384.18,96.2l-12.77,31.35a2.5,2.5,0,0,0,2.32,3.45h25.54a2.5,2.5,0,0,0,2.32-3.45L1388.82,96.2A2.51,2.51,0,0,0,1384.18,96.2Z" />
        <polygon class="cls-3" points="1401.5 96.5 1385 137 1418 137 1401.5 96.5" />
        <path class="cls-3"
          d="M1484,105.56l-12.53,30.77A2.66,2.66,0,0,0,1474,140H1499a2.66,2.66,0,0,0,2.47-3.67L1489,105.56A2.67,2.67,0,0,0,1484,105.56Z" />
        <polygon class="cls-3" points="1509.5 92.5 1493 133 1526 133 1509.5 92.5" />
        <polygon class="cls-3" points="1577.5 104.5 1561 145 1594 145 1577.5 104.5" />
        <path class="cls-3"
          d="M1591.73,106.3l-12,29.58a3,3,0,0,0,2.77,4.12h24.1a3,3,0,0,0,2.77-4.12l-12-29.58A3,3,0,0,0,1591.73,106.3Z" />
        <polygon class="cls-3" points="1613.5 108.5 1597 149 1630 149 1613.5 108.5" />
        <polygon class="cls-3" points="1628.72 95.5 1611 139 1646.44 139 1628.72 95.5" />
        <polygon class="cls-3" points="1530.5 97.5 1514 138 1547 138 1530.5 97.5" />
        <path class="cls-4" d="M608,250c563-255,1264-70,1264-70V451H459Z" />
        <polygon class="cls-5"
          points="1079.5 108.25 1079.5 212.25 1030.5 272.25 905.5 272.25 905.5 168.25 968.5 108.25 1079.5 108.25" />
        <polygon class="cls-6"
          points="1141.5 168.25 1079.5 108.25 1016.5 168.25 1016.5 272.25 1141.5 272.25 1141.5 168.25" />
        <rect class="cls-6" x="924.5" y="181.25" width="24" height="55" />
        <rect class="cls-6" x="968.5" y="181.25" width="24" height="55" />
        <rect class="cls-5" x="1046.5" y="181.25" width="24" height="55" />
        <rect class="cls-5" x="1090.5" y="181.25" width="24" height="55" />
        <circle class="cls-1" cx="1148.5" cy="268.25" r="23" />
        <circle class="cls-1" cx="1189" cy="251.75" r="30.5" />
        <ellipse class="cls-1" cx="1242" cy="244.25" rx="46.5" ry="36" />
        <path class="cls-2"
          d="M1281.23,224.92c-9.43-4.81-21.32-7.67-34.23-7.67-22.88,0-42.52,9-51,21.8,3.25-17.42,22.61-30.8,46-30.8C1258.49,208.25,1273,214.9,1281.23,224.92Z" />
        <ellipse class="cls-1" cx="1294.5" cy="264.25" rx="31" ry="27" />
        <path class="cls-7" d="M1,211.25c804,63.47,1871,66.45,1871,66.45L1871,454,0,448.68Z" />
        <path class="cls-8" d="M1,199c502,85,967.5,97.25,967.5,97.25s-228,107.25-509,155.25L1,445Z" />
        <path class="cls-9"
          d="M845.41,197.44h0c5.83,23.08,5.83,23.08,28.91,27.39h0c-19.7,6.39-22,8.08-27.39,28.91h0c-7-21.39-5.83-22-28.91-27.39h0C839.41,220.52,840,220.52,845.41,197.44Z" />
        <path class="cls-9"
          d="M376.86,238.19h0c8.9,35.25,8.9,35.25,44.16,41.84h0c-30.09,9.76-33.53,12.34-41.84,44.16h0c-10.62-32.68-8.9-33.54-44.16-41.84h0C367.7,273.44,368.56,273.44,376.86,238.19Z" />
        <path class="cls-9"
          d="M879.81,233.18h0c2.85,11.3,2.85,11.3,14.15,13.41h0c-9.65,3.13-10.75,4-13.41,14.16h0c-3.41-10.48-2.85-10.75-14.15-13.41h0C876.87,244.48,877.14,244.48,879.81,233.18Z" />
        <path class="cls-10"
          d="M1456.5,68h0A21.51,21.51,0,0,0,1435,89.5l-2.42,137c0,10,12.05,21.5,23.92,21.5h0c11.87,0,23.92-11.49,23.92-21.5L1478,89.5A21.51,21.51,0,0,0,1456.5,68Z" />
        <path class="cls-11"
          d="M1469.77,72.91a19.64,19.64,0,0,0-8.46-1.91C1449.54,71,1440,81.43,1440,94.29l-2.34,144.64c-3.36-3.76-5.48-8.23-5.48-12.43l2.42-137a21.5,21.5,0,0,1,35.17-16.59Z" />
        <rect class="cls-10" x="1453" y="243" width="8" height="52" />
        <path class="cls-10"
          d="M1637.5,72h0A21.51,21.51,0,0,0,1616,93.5l-2.42,137c0,10,12.05,21.5,23.92,21.5h0c11.87,0,23.92-11.49,23.92-21.5L1659,93.5A21.51,21.51,0,0,0,1637.5,72Z" />
        <path class="cls-11"
          d="M1650.77,76.91a19.64,19.64,0,0,0-8.46-1.91C1630.54,75,1621,85.43,1621,98.29l-2.34,144.64c-3.36-3.76-5.48-8.23-5.48-12.43l2.42-137a21.5,21.5,0,0,1,35.17-16.59Z" />
        <rect class="cls-10" x="1634" y="247" width="8" height="52" />
        <path class="cls-10"
          d="M1551.3,0h0c-12.75,0-23.09,13.64-23.09,30.46l-2.6,194.08c0,14.18,12.94,30.46,25.69,30.46h0c12.76,0,25.7-16.28,25.7-30.46l-2.6-194.08C1574.4,13.64,1564.06,0,1551.3,0Z" />
        <path class="cls-11"
          d="M1565.56,7a16.92,16.92,0,0,0-9.09-2.71c-12.64,0-22.89,14.78-22.89,33l-2.51,204.91c-3.61-5.33-5.89-11.66-5.89-17.61l2.6-194.08c0-16.82,10.34-30.46,23.1-30.46C1556.46,0,1561.57,2.62,1565.56,7Z" />
        <rect class="cls-10" x="1547" y="243" width="8" height="52" />
      </g>
    </g>
  </g>
</svg>