<svg xmlns="http://www.w3.org/2000/svg" viewBox="0 0 123 185.32"><defs><style>.cls-1{fill:#ed1c24;}.cls-2,.cls-4{fill:none;}.cls-3{fill:#fff;}.cls-4{stroke:#754c24;stroke-miterlimit:10;stroke-width:1.64px;}.cls-5{fill:#754c24;}</style></defs><title>Hot Air Balloon</title><g id="Layer_2" data-name="Layer 2"><g id="Air_Balloon" data-name="Air Balloon"><path class="cls-1" d="M123,51.66c0,21.75-25.09,74-45,97.58H46.17C26.37,125.64,0,73.41,0,51.66,0,23.13,27.54,0,61.5,0S123,23.13,123,51.66Z"/><line class="cls-2" x1="77.98" y1="149.24" x2="46.17" y2="149.24"/><path class="cls-3" d="M112.61,51.66c0,21.75-20.63,74-37,97.58H49.44c-16.28-23.6-38-75.83-38-97.58C11.48,23.13,34.12,0,62.05,0S112.61,23.13,112.61,51.66Z"/><line class="cls-2" x1="75.6" y1="149.24" x2="49.44" y2="149.24"/><path class="cls-1" d="M94,51.66c0,21.75-12.83,74-23,97.58H54.76c-10.12-23.6-23.6-75.83-23.6-97.58C31.16,23.13,45.23,0,62.59,0S94,23.13,94,51.66Z"/><line class="cls-2" x1="71.02" y1="149.24" x2="54.76" y2="149.24"/><path class="cls-3" d="M75.44,51.66c0,21.75-5.24,74-9.4,97.58H59.39c-4.14-23.6-9.64-75.83-9.64-97.58C49.75,23.13,55.5,0,62.59,0S75.44,23.13,75.44,51.66Z"/><rect class="cls-1" x="45.92" y="149.24" width="32.25" height="5.47"/><line class="cls-4" x1="46.74" y1="154.71" x2="46.74" y2="167.28"/><line class="cls-4" x1="56.67" y1="154.71" x2="56.67" y2="167.28"/><line class="cls-4" x1="67.42" y1="154.71" x2="67.42" y2="167.28"/><line class="cls-4" x1="77.35" y1="154.71" x2="77.35" y2="167.28"/><rect class="cls-5" x="43.73" y="166.73" width="36.63" height="3.28" rx="1.64"/><path class="cls-5" d="M45.92,170H78.17a0,0,0,0,1,0,0v7.88a7.43,7.43,0,0,1-7.43,7.43H53.35a7.43,7.43,0,0,1-7.43-7.43V170A0,0,0,0,1,45.92,170Z"/></g></g></svg>