<svg xmlns="http://www.w3.org/2000/svg" viewBox="0 0 1872 491">
  <defs>
    <style>
      .cls-1 {
        fill: #2a8637;
      }

      .cls-2 {
        fill: #68db78;
      }

      .cls-3 {
        fill: #20662a;
      }

      .cls-4 {
        fill: #70f583;
      }

      .cls-5 {
        fill: #559e5f;
      }

      .cls-6 {
        fill: #4ae75e;
      }

      .cls-7 {
        fill: #399;
      }

      .cls-8 {
        fill: #003030;
      }

      .cls-9 {
        fill: #2b8838;
      }

      .cls-10 {
        fill: #1d5b25;
      }

      .cls-11 {
        fill: #b7fac1;
      }
    </style>
  </defs>
  <title>Landscape</title>
  <g id="Layer_2" data-name="Layer 2">
    <g id="Landscape">
      <g id="Element">
        <path class="cls-1"
          d="M1712.5,21h0c-11.87,0-21.5,12.41-21.5,27.71l-2.42,176.58c0,12.9,12.05,27.71,23.92,27.71h0c11.87,0,23.92-14.81,23.92-27.71L1734,48.71C1734,33.41,1724.37,21,1712.5,21Z" />
        <path class="cls-2"
          d="M1725.77,27.33a16,16,0,0,0-8.46-2.46c-11.77,0-21.31,13.44-21.31,30l-2.34,186.43a29,29,0,0,1-5.48-16l2.42-176.58c0-15.3,9.63-27.71,21.5-27.71A18.75,18.75,0,0,1,1725.77,27.33Z" />
        <rect class="cls-1" x="1709" y="248" width="8" height="52" />
        <ellipse class="cls-3" cx="330" cy="241" rx="44" ry="27" />
        <ellipse class="cls-3" cx="434" cy="248" rx="27" ry="88" transform="translate(157.46 664.4) rotate(-86.16)" />
        <path class="cls-4"
          d="M521.8,253.9a10.39,10.39,0,0,1-3.07,6.39c-10.66-18-47.86-33.14-93-36.18-27.57-1.85-52.82,1.17-71.25,7.55,14.31-8.51,45.53-13,81.31-10.6C484.3,224.32,522.8,239,521.8,253.9Z" />
        <path class="cls-5"
          d="M1290.58,140.67l-11.81,29a3.15,3.15,0,0,0,2.92,4.34h23.62a3.15,3.15,0,0,0,2.92-4.34l-11.81-29A3.15,3.15,0,0,0,1290.58,140.67Z" />
        <polygon class="cls-5" points="1306.5 127.5 1290 168 1323 168 1306.5 127.5" />
        <path class="cls-5"
          d="M1322.48,135l-14.86,36.47a1.1,1.1,0,0,0,1,1.52h29.72a1.1,1.1,0,0,0,1-1.52L1324.52,135A1.1,1.1,0,0,0,1322.48,135Z" />
        <polygon class="cls-5" points="1341.5 117.5 1325 158 1358 158 1341.5 117.5" />
        <path class="cls-5"
          d="M1384.18,133.2l-12.77,31.35a2.5,2.5,0,0,0,2.32,3.45h25.54a2.5,2.5,0,0,0,2.32-3.45l-12.77-31.35A2.51,2.51,0,0,0,1384.18,133.2Z" />
        <polygon class="cls-5" points="1401.5 133.5 1385 174 1418 174 1401.5 133.5" />
        <path class="cls-5"
          d="M1484,142.56l-12.53,30.77A2.66,2.66,0,0,0,1474,177H1499a2.66,2.66,0,0,0,2.47-3.67L1489,142.56A2.67,2.67,0,0,0,1484,142.56Z" />
        <polygon class="cls-5" points="1509.5 129.5 1493 170 1526 170 1509.5 129.5" />
        <polygon class="cls-5" points="1577.5 141.5 1561 182 1594 182 1577.5 141.5" />
        <path class="cls-5"
          d="M1591.73,143.3l-12,29.58a3,3,0,0,0,2.77,4.12h24.1a3,3,0,0,0,2.77-4.12l-12-29.58A3,3,0,0,0,1591.73,143.3Z" />
        <polygon class="cls-5" points="1613.5 145.5 1597 186 1630 186 1613.5 145.5" />
        <polygon class="cls-5" points="1628.72 132.5 1611 176 1646.44 176 1628.72 132.5" />
        <polygon class="cls-5" points="1530.5 134.5 1514 175 1547 175 1530.5 134.5" />
        <path class="cls-6" d="M608,287c563-255,1264-70,1264-70V488H459Z" />
        <polygon class="cls-7" points="1105 128 1105 232 1056 292 931 292 931 188 994 128 1105 128" />
        <polygon class="cls-8" points="1167 188 1105 128 1042 188 1042 292 1167 292 1167 188" />
        <circle class="cls-3" cx="1164" cy="288" r="23" />
        <circle class="cls-3" cx="1204.5" cy="271.5" r="30.5" />
        <ellipse class="cls-3" cx="1257.5" cy="264" rx="46.5" ry="36" />
        <path class="cls-4"
          d="M1296.73,244.67c-9.43-4.81-21.32-7.67-34.23-7.67-22.88,0-42.52,9-51,21.8,3.25-17.42,22.61-30.8,46-30.8C1274,228,1288.48,234.65,1296.73,244.67Z" />
        <ellipse class="cls-3" cx="1310" cy="284" rx="31" ry="27" />
        <path class="cls-9" d="M1,217c804,71.64,1871,75,1871,75l-1,199L0,485Z" />
        <path class="cls-10" d="M1,236c502,85,964.5,82.5,964.5,82.5s-225,122-506,170L1,482Z" />
        <rect class="cls-8" x="950" y="201" width="24" height="55" />
        <rect class="cls-8" x="994" y="201" width="24" height="55" />
        <rect class="cls-7" x="1072" y="201" width="24" height="55" />
        <rect class="cls-7" x="1116" y="201" width="24" height="55" />
        <path class="cls-11"
          d="M845.41,234.44h0c5.83,23.08,5.83,23.08,28.91,27.39h0c-19.7,6.39-22,8.08-27.39,28.91h0c-7-21.39-5.83-22-28.91-27.39h0C839.41,257.52,840,257.52,845.41,234.44Z" />
        <path class="cls-11"
          d="M376.86,275.19h0c8.9,35.25,8.9,35.25,44.16,41.84h0c-30.09,9.76-33.53,12.34-41.84,44.16h0c-10.62-32.68-8.9-33.54-44.16-41.84h0C367.7,310.44,368.56,310.44,376.86,275.19Z" />
        <path class="cls-11"
          d="M879.81,270.18h0c2.85,11.3,2.85,11.3,14.15,13.41h0c-9.65,3.13-10.75,4-13.41,14.16h0c-3.41-10.48-2.85-10.75-14.15-13.41h0C876.87,281.48,877.14,281.48,879.81,270.18Z" />
        <path class="cls-1"
          d="M1456.5,68h0A21.51,21.51,0,0,0,1435,89.5l-2.42,137c0,10,12.05,21.5,23.92,21.5h0c11.87,0,23.92-11.49,23.92-21.5L1478,89.5A21.51,21.51,0,0,0,1456.5,68Z" />
        <path class="cls-2"
          d="M1469.77,72.91a19.64,19.64,0,0,0-8.46-1.91C1449.54,71,1440,81.43,1440,94.29l-2.34,144.64c-3.36-3.76-5.48-8.23-5.48-12.43l2.42-137a21.5,21.5,0,0,1,35.17-16.59Z" />
        <rect class="cls-1" x="1453" y="243" width="8" height="52" />
        <path class="cls-1"
          d="M1637.5,72h0A21.51,21.51,0,0,0,1616,93.5l-2.42,137c0,10,12.05,21.5,23.92,21.5h0c11.87,0,23.92-11.49,23.92-21.5L1659,93.5A21.51,21.51,0,0,0,1637.5,72Z" />
        <path class="cls-2"
          d="M1650.77,76.91a19.64,19.64,0,0,0-8.46-1.91C1630.54,75,1621,85.43,1621,98.29l-2.34,144.64c-3.36-3.76-5.48-8.23-5.48-12.43l2.42-137a21.5,21.5,0,0,1,35.17-16.59Z" />
        <rect class="cls-1" x="1634" y="247" width="8" height="52" />
        <path class="cls-1"
          d="M1551.3,0h0c-12.75,0-23.09,13.64-23.09,30.46l-2.6,194.08c0,14.18,12.94,30.46,25.69,30.46h0c12.76,0,25.7-16.28,25.7-30.46l-2.6-194.08C1574.4,13.64,1564.06,0,1551.3,0Z" />
        <path class="cls-2"
          d="M1565.56,7a16.92,16.92,0,0,0-9.09-2.71c-12.64,0-22.89,14.78-22.89,33l-2.51,204.91c-3.61-5.33-5.89-11.66-5.89-17.61l2.6-194.08c0-16.82,10.34-30.46,23.1-30.46C1556.46,0,1561.57,2.62,1565.56,7Z" />
        <rect class="cls-1" x="1547" y="243" width="8" height="52" />
      </g>
    </g>
  </g>
</svg>