<svg xmlns="http://www.w3.org/2000/svg" viewBox="0 0 114 114"><defs><style>.cls-1{fill:#d1d1d1;}.cls-2{fill:#b3b3b3;}.cls-3{fill:#f0f0f0;}</style></defs><title>Moon</title><g id="Layer_2" data-name="Layer 2"><g id="Moon"><path class="cls-1" d="M114,57A57,57,0,1,1,54.42.06Q55.7,0,57,0A57,57,0,0,1,114,57Z"/><circle class="cls-2" cx="32" cy="51" r="12"/><circle class="cls-2" cx="36" cy="27" r="16"/><path class="cls-2" d="M56,9A26,26,0,0,1,30,35,25.88,25.88,0,0,1,9.69,25.21,56.92,56.92,0,0,1,54.42.06,26,26,0,0,1,56,9Z"/><circle class="cls-2" cx="73" cy="25" r="16"/><circle class="cls-3" cx="42.5" cy="88.5" r="12.5"/><circle class="cls-3" cx="64" cy="83" r="5"/><circle class="cls-2" cx="89" cy="43" r="12"/><circle class="cls-2" cx="77" cy="60" r="6"/><circle class="cls-2" cx="10" cy="43" r="6"/><circle class="cls-2" cx="94.5" cy="65.5" r="3.5"/></g></g></svg>