<svg xmlns="http://www.w3.org/2000/svg" viewBox="0 0 1201.4 475.1"><defs><style>.cls-1{fill:#fff;opacity:0.5;}</style></defs><title>Stars</title><g id="Layer_2" data-name="Layer 2"><g id="Star"><circle class="cls-1" cx="597.4" cy="44" r="4"/><circle class="cls-1" cx="889.4" cy="4" r="4"/><circle class="cls-1" cx="1197.4" cy="231" r="4"/><circle class="cls-1" cx="1008.4" cy="375" r="4"/><circle class="cls-1" cx="734.4" cy="235" r="4"/><circle class="cls-1" cx="11.4" cy="435" r="4"/><circle class="cls-1" cx="294.4" cy="438" r="4"/><circle class="cls-1" cx="79.4" cy="11" r="4"/><circle class="cls-1" cx="479.4" cy="88" r="2"/><circle class="cls-1" cx="488.4" cy="389" r="2"/><circle class="cls-1" cx="736.4" cy="391" r="2"/><circle class="cls-1" cx="294.4" cy="258" r="2"/><path class="cls-1" d="M416.73,453h0c2.28,9,2.28,9,11.33,10.73h0c-7.72,2.51-8.6,3.17-10.74,11.33h0c-2.72-8.38-2.28-8.6-11.32-10.73h0C414.38,462.09,414.6,462.09,416.73,453Z"/><path class="cls-1" d="M304.73,35h0c2.28,9.05,2.28,9.05,11.33,10.73h0c-7.72,2.51-8.6,3.17-10.74,11.33h0C302.6,48.72,303,48.5,294,46.37h0C302.38,44.09,302.6,44.09,304.73,35Z"/><path class="cls-1" d="M786.73,83h0c2.28,9,2.28,9,11.33,10.73h0c-7.72,2.51-8.6,3.17-10.74,11.33h0C784.6,96.72,785,96.5,776,94.37h0C784.38,92.09,784.6,92.09,786.73,83Z"/><path class="cls-1" d="M1041.73,181h0c2.28,9.05,2.28,9.05,11.33,10.73h0c-7.72,2.51-8.6,3.17-10.74,11.33h0c-2.72-8.38-2.28-8.6-11.32-10.73h0C1039.38,190.09,1039.6,190.09,1041.73,181Z"/><path class="cls-1" d="M1122.73,332h0c2.28,9,2.28,9,11.33,10.73h0c-7.72,2.51-8.6,3.17-10.74,11.33h0c-2.72-8.38-2.28-8.6-11.32-10.73h0C1120.38,341.09,1120.6,341.09,1122.73,332Z"/><path class="cls-1" d="M10.73,139h0c2.28,9.05,2.28,9.05,11.33,10.73h0c-7.72,2.51-8.6,3.17-10.74,11.33h0C8.6,152.72,9,152.5,0,150.37H0C8.38,148.09,8.6,148.09,10.73,139Z"/></g></g></svg>